<svg xmlns="http://www.w3.org/2000/svg" width="432" height="216"><switch><g><path fill="#0091BE" d="M0 0h432v216H0z"/><path d="M38.175 49.742l2.174-.579L42.87 37.25l-1.92-.532.186-.855h8.119l-.185.855-2.175.579-2.521 11.913 1.92.532-.185.855h-8.12l.186-.855zm11.295-6.871c2.105-1.318 2.915-2.359 3.331-3.308l-.161-.208-.07.023a.893.893 0 01-.277.046c-.786 0-1.48-.532-1.48-1.596 0-1.25.972-2.313 2.175-2.313s2.035.855 2.035 2.383c0 2.267-1.827 4.464-5.135 5.69l-.418-.717zm8.753 7.842l.277-.855c-.277-3.076-.74-5.274-1.11-6.478-.254-.763-.462-.994-.948-.994-.301 0-.833.115-1.411.324l-.347-.532c1.318-1.411 2.545-2.429 3.886-2.429.926 0 1.435.347 1.781 1.202.439 1.064.902 3.262 1.064 6.686l.186.046c.994-1.041 1.758-2.082 2.382-3.284-.693-.764-.994-1.735-.994-2.499 0-1.364.81-2.197 1.896-2.197 1.134 0 1.851.81 1.851 2.013 0 2.498-1.896 4.904-7.634 9.484l-.879-.487zm15.868-2.012c.879 0 1.828-.324 2.753-.856l.417.439c-1.064 1.643-2.614 2.614-4.673 2.614-3.03 0-4.58-1.851-4.58-4.164 0-3.979 3.215-6.985 6.731-6.985 2.267 0 3.562 1.133 3.562 2.613 0 2.521-3.192 3.794-7.103 3.679.025 1.873 1.066 2.66 2.893 2.66zm1.226-6.802c0-.578-.277-.971-.856-.971-1.133 0-2.775 1.781-3.169 4.048 3.1-.324 4.025-1.619 4.025-3.077zm8.159 6.432c0-.926.693-1.643 1.503-1.643.972 0 1.874.902 1.943 2.567.647.347 1.11.486 1.666.486.81 0 1.272-.556 1.272-1.365 0-.671-.371-1.064-1.666-1.643l-.995-.439c-1.434-.624-2.405-1.342-2.405-2.822 0-1.873 1.643-3.724 4.881-3.724 2.359 0 3.794 1.133 3.794 2.336 0 .948-.625 1.48-1.411 1.48-1.064 0-1.92-1.041-2.082-2.406a2.363 2.363 0 00-.972-.208c-.786 0-1.272.625-1.272 1.272s.394.995 1.597 1.55l.994.463c1.527.717 2.452 1.411 2.452 2.915 0 1.734-1.411 3.747-4.673 3.747-2.637.001-4.626-.994-4.626-2.566zm16.615.37c.879 0 1.828-.324 2.753-.856l.417.439c-1.064 1.643-2.614 2.614-4.673 2.614-3.03 0-4.58-1.851-4.58-4.164 0-3.979 3.215-6.985 6.731-6.985 2.267 0 3.562 1.133 3.562 2.613 0 2.521-3.192 3.794-7.103 3.679.025 1.873 1.066 2.66 2.893 2.66zm1.226-6.802c0-.578-.277-.971-.856-.971-1.133 0-2.775 1.781-3.169 4.048 3.1-.324 4.025-1.619 4.025-3.077zm9.774 6.802c.879 0 1.828-.324 2.753-.856l.417.439c-1.064 1.643-2.614 2.614-4.673 2.614-3.03 0-4.58-1.851-4.58-4.164 0-3.979 3.215-6.985 6.731-6.985 2.267 0 3.562 1.133 3.562 2.613 0 2.521-3.192 3.794-7.103 3.679.025 1.873 1.066 2.66 2.893 2.66zm1.226-6.802c0-.578-.277-.971-.856-.971-1.133 0-2.775 1.781-3.169 4.048 3.1-.324 4.025-1.619 4.025-3.077zm10.745 7.311c0-.324.047-.671.139-1.064l.926-3.933c.323-1.364.093-2.059-.902-2.059-.555 0-1.295.277-2.151.81l-1.619 7.634h-3.4l1.734-8.166-1.55-1.018.093-.694 4.812-1.041.486.301-.671 1.99.231.046c1.572-1.411 2.799-2.267 4.232-2.267 2.175 0 2.707 1.989 2.151 4.279l-.902 3.771c-.277 1.18-.185 1.295 1.643 1.411l.116.602c-1.11.671-2.244 1.087-3.378 1.087-1.411-.001-1.99-.602-1.99-1.689zm13.009-2.059l1.11-5.229h-2.059l.185-.855 2.753-1.458 2.591-2.845.995.162-.717 3.4h3.169l-.348 1.596h-3.169l-.994 4.673c-.278 1.272-.231 1.688.022 1.943.255.254.718.439 1.99.439.416 0 .74-.023 1.087-.046v.832c-1.597.648-3.077 1.134-4.673 1.134-2.543.001-2.288-2.173-1.942-3.746zm14.807 2.059c0-.324.046-.671.139-1.064l.925-3.933c.324-1.364.093-2.059-.901-2.059-.556 0-1.296.277-2.151.81l-1.62 7.634h-3.4l3.054-14.389-1.665-1.018.092-.694 5.021-1.04.485.3-1.665 7.843.23.046c1.435-1.227 2.521-1.896 3.817-1.896 2.174 0 2.706 1.989 2.151 4.279l-.902 3.771c-.277 1.18-.185 1.295 1.643 1.411l.115.602c-1.11.671-2.243 1.087-3.377 1.087-1.413-.002-1.991-.603-1.991-1.69zm12.213-.509c.879 0 1.828-.324 2.753-.856l.417.439c-1.064 1.643-2.614 2.614-4.673 2.614-3.03 0-4.58-1.851-4.58-4.164 0-3.979 3.215-6.985 6.731-6.985 2.267 0 3.562 1.133 3.562 2.613 0 2.521-3.192 3.794-7.103 3.679.025 1.873 1.066 2.66 2.893 2.66zm1.226-6.802c0-.578-.277-.971-.856-.971-1.133 0-2.775 1.781-3.169 4.048 3.1-.324 4.025-1.619 4.025-3.077zM46.822 68.755v9.336h9.453v6.752h-9.453v16.206h-8.396V61.944h21.372v6.811H46.822zm29.345 33.292c-7.398 0-12.8-4.462-12.8-10.979V61.944h8.514V90.95c0 2.642 1.526 4.109 4.286 4.109 2.818 0 4.404-1.468 4.404-4.109V61.944h8.161v29.123c0 6.518-5.108 10.98-12.565 10.98zm32.937-32.94v31.941h-8.396V69.107h-8.455v-7.163h25.248v7.163h-8.397zm25.063 32.94c-7.398 0-12.8-4.462-12.8-10.979V61.944h8.514V90.95c0 2.642 1.526 4.109 4.286 4.109 2.818 0 4.404-1.468 4.404-4.109V61.944h8.161v29.123c0 6.518-5.108 10.98-12.565 10.98zm39.338-.763c-3.405 0-4.697-2.35-4.697-5.989v-6.4c0-2.055-1.057-3.816-3.465-3.816h-4.521v15.971h-8.396V61.944h14.092c6.341 0 10.158 3.641 10.158 9.277v4.227c0 3.171-1.527 5.578-5.05 6.518 3.522.822 5.226 3.758 5.226 6.459v6.4c0 1.82.587 3.053 1.644 3.992v2.467h-4.991zm-4.933-29.594c0-1.938-.821-3.17-2.994-3.17h-4.756v10.745h4.403c2.173 0 3.347-1.116 3.347-3.465v-4.11zm13.854 29.359V61.944h21.783v7.046h-13.387v8.572h9.218v6.341h-9.218v9.806h13.387v7.34h-21.783zm-144.251 30.32l2.174-.579 2.521-11.913-1.92-.532.186-.855h8.119l-.185.855-2.175.579-2.521 11.913 1.92.532-.185.855h-8.12l.186-.855zm11.896-2.591l1.11-5.229h-2.059l.185-.855 2.753-1.458 2.591-2.845.995.162-.717 3.4h3.169l-.348 1.596h-3.169l-.994 4.673c-.278 1.272-.231 1.688.022 1.943.255.254.718.439 1.99.439.416 0 .74-.023 1.087-.046v.832c-1.597.648-3.077 1.134-4.673 1.134-2.543.001-2.288-2.173-1.942-3.746zm8.399-4.28c2.105-1.318 2.915-2.359 3.331-3.308l-.161-.208-.07.023a.893.893 0 01-.277.046c-.786 0-1.48-.532-1.48-1.596 0-1.25.972-2.313 2.175-2.313s2.035.855 2.035 2.383c0 2.267-1.827 4.464-5.135 5.69l-.418-.717zm5.006 5.46c0-.926.693-1.643 1.503-1.643.972 0 1.874.902 1.943 2.567.647.347 1.11.486 1.666.486.81 0 1.272-.556 1.272-1.365 0-.671-.371-1.064-1.666-1.643l-.995-.439c-1.434-.624-2.405-1.342-2.405-2.822 0-1.873 1.643-3.724 4.881-3.724 2.359 0 3.794 1.133 3.794 2.336 0 .948-.625 1.48-1.411 1.48-1.064 0-1.92-1.041-2.082-2.406a2.363 2.363 0 00-.972-.208c-.786 0-1.272.625-1.272 1.272s.394.995 1.597 1.55l.994.463c1.527.717 2.452 1.411 2.452 2.915 0 1.734-1.411 3.747-4.673 3.747-2.637.001-4.626-.994-4.626-2.566zm16.156-.186l1.388-5.714-1.734-1.018.093-.694 5.158-1.041.485.301-1.896 7.819c-.301 1.203-.231 1.295 1.827 1.411l.116.602c-1.342.74-2.359 1.087-3.562 1.087-1.945 0-2.291-1.041-1.875-2.753zm2.359-12.005c0-1.226.972-2.683 2.406-2.683.925 0 1.619.647 1.619 1.804 0 1.227-.972 2.684-2.406 2.684-.924-.001-1.619-.648-1.619-1.805zm12.071 13.07c0-.324.047-.671.139-1.064l.926-3.933c.323-1.364.093-2.059-.902-2.059-.555 0-1.295.277-2.151.81l-1.619 7.634h-3.4l1.734-8.166-1.55-1.018.093-.694 4.812-1.041.486.301-.671 1.99.231.046c1.572-1.411 2.799-2.267 4.232-2.267 2.175 0 2.707 1.989 2.151 4.279l-.902 3.771c-.277 1.18-.185 1.295 1.643 1.411l.116.602c-1.11.671-2.244 1.087-3.378 1.087-1.411-.001-1.99-.602-1.99-1.689zm25.409 0c0-.324.046-.671.139-1.064l.925-3.933c.324-1.364.069-2.059-.832-2.059-.463 0-1.203.277-2.06.81l-1.619 7.634h-3.4l1.388-6.547c.231-1.271 0-1.896-.879-1.896-.462 0-1.202.277-2.059.81l-1.619 7.634h-3.4l1.734-8.166-1.55-1.018.093-.694 4.812-1.041.486.301-.671 1.99.231.046c1.572-1.411 2.799-2.267 4.187-2.267 1.318 0 2.082.948 2.221 2.15l.231.047c1.504-1.342 2.729-2.197 4.117-2.197 2.151 0 2.545 2.128 2.036 4.279l-.902 3.771c-.277 1.18-.186 1.295 1.643 1.411l.115.602c-1.11.671-2.244 1.087-3.377 1.087-1.412-.002-1.99-.603-1.99-1.69zm5.056 4.303c0-.579.439-1.712 1.804-1.712.833 0 1.597.602 1.851 2.104.671-.462 1.55-1.526 2.128-2.452-.81-4.163-1.364-6.546-1.851-7.934-.323-.949-.578-1.064-1.018-1.064-.394 0-.902.139-1.434.347l-.348-.509c1.342-1.503 2.568-2.544 3.909-2.544.926 0 1.435.347 1.781 1.202.439 1.064 1.11 4.141 1.435 7.333h.231c.693-2.221 1.134-4.464 1.827-8.651h.277l2.892 1.318c-2.405 5.229-4.464 9.577-7.703 13.047-1.18 1.272-2.359 1.666-3.238 1.666-1.363 0-2.543-.625-2.543-2.151zm-71.598 47.536H38.426v-39.104h14.327c6.341 0 9.805 3.405 9.805 8.983v2.818c0 3.699-1.468 6.576-5.46 7.28 4.169.881 5.695 3.641 5.695 7.281v3.758c0 5.637-3.523 8.984-9.864 8.984zm1.643-29.359c0-1.938-.821-3.17-2.994-3.17h-4.697v9.981h4.345c2.173 0 3.347-1.115 3.347-3.405v-3.406zm.177 16.089c0-2.29-1.175-3.465-3.347-3.465h-4.521V176.1h4.873c2.173 0 2.995-1.175 2.995-3.112v-3.582zm33.756 13.505c-3.405 0-4.697-2.35-4.697-5.989v-6.4c0-2.055-1.057-3.816-3.465-3.816h-4.521v15.971h-8.396v-39.104h14.092c6.341 0 10.158 3.641 10.158 9.277v4.227c0 3.171-1.527 5.578-5.05 6.518 3.522.822 5.226 3.758 5.226 6.459v6.4c0 1.82.587 3.053 1.644 3.992v2.467h-4.991zm-4.933-29.594c0-1.938-.821-3.17-2.994-3.17h-4.756v10.745h4.403c2.173 0 3.347-1.116 3.347-3.465v-4.11zm26.302 30.357c-8.045 0-12.859-4.991-12.859-11.978V154.55c0-6.929 4.814-11.919 12.859-11.919 8.103 0 12.858 4.99 12.858 11.919v17.146c0 6.987-4.755 11.978-12.858 11.978zm4.403-29.593c0-2.643-1.585-4.403-4.403-4.403-2.76 0-4.346 1.761-4.346 4.403v18.085c0 2.642 1.586 4.403 4.346 4.403 2.818 0 4.403-1.762 4.403-4.403v-18.085zm44.27 28.595h-7.516l-4.639-22.841-4.814 22.841h-7.457l-8.161-39.104h8.338l4.227 25.6 4.933-25.6h6.518l4.697 25.6 4.345-25.6h7.751l-8.222 39.104zm22.211.998c-7.691 0-12.565-4.403-12.565-11.097v-1.997h7.692v1.292c0 3.288 1.644 5.05 4.697 5.05 2.994 0 4.462-1.703 4.462-4.404 0-2.818-2.23-4.521-6.752-6.869-4.697-2.525-9.688-5.637-9.688-11.626s4.286-11.391 12.271-11.391c7.164 0 11.92 4.814 11.92 11.038v1.586h-7.574v-1.233c0-2.643-1.468-4.697-4.404-4.697-2.466 0-4.051 1.526-4.051 3.875 0 2.76 2.23 4.286 7.222 6.87 5.461 2.994 9.277 6.048 9.277 11.743 0 6.34-4.698 11.86-12.507 11.86zm16.668-.998v-39.104h21.783v7.046h-13.387v8.572h9.218v6.341h-9.218v9.806h13.387v7.34h-21.783zm47.079.235c-3.405 0-4.697-2.35-4.697-5.989v-6.4c0-2.055-1.057-3.816-3.465-3.816h-4.521v15.971h-8.396v-39.104h14.092c6.341 0 10.158 3.641 10.158 9.277v4.227c0 3.171-1.527 5.578-5.05 6.518 3.522.822 5.226 3.758 5.226 6.459v6.4c0 1.82.587 3.053 1.644 3.992v2.467h-4.991zm-4.933-29.594c0-1.938-.821-3.17-2.994-3.17h-4.756v10.745h4.403c2.173 0 3.347-1.116 3.347-3.465v-4.11z" fill="#FFF"/><path fill="#E34F26" d="M278.114 168.167L266.007 32.394H398.96l-12.118 135.781-54.392 15.076z"/><path fill="#EE652A" d="M332.483 43.494V171.72l43.978-12.19 10.361-116.036z"/><path fill="#FFF" d="M290.775 60.146l4.496 50.36h57.711l-1.932 21.595-18.588 5.021-18.548-5.007-1.237-13.877h-16.715l2.381 26.738 34.115 9.47 34.155-9.47 4.571-51.124h-60.685l-1.524-17.054h63.726l1.489-16.652z"/><path d="M332.483 60.146h-41.708l4.496 50.36h37.212V93.852h-21.984l-1.524-17.054h23.508zm0 76.964l-.021.012-18.548-5.007-1.237-13.877h-16.715l2.381 26.738 34.115 9.47.025-.007z" fill="#EBEBEB"/></g></switch></svg>