<svg class="icon" viewBox="0 0 1024 1024" xmlns="http://www.w3.org/2000/svg" width="48" height="48"><defs><style/></defs><path d="M126.268 512a385.732 385.732 0 10771.464 0 385.732 385.732 0 10-771.464 0z" fill="#E1E1E1"/><path d="M296.542 302.754H732.8l-39.654 445.568-179.09 50.193-177.86-50.193z" fill="#E44D26"/><path d="M334.2 345.54l32.81 368.657 147.149 41.524.512-.163V345.54z" fill="#E44D26"/><path d="M695.142 345.54H514.671v410.018l147.66-41.36z" fill="#F26528"/><path d="M639.693 456.858l4.616-50.44H389.47l13.552 153.932h176.392l-6.34 65.732-56.79 15.283-56.498-15.283-3.755-40.363h-50.44l6.357 80.137 104.337 28.826h1.177v-.273l103.476-28.553 14.395-156.817h-185.65l-4.319-52.164H639.65z" fill="#EFEFEF"/></svg>