<?xml version="1.0" standalone="no"?><!DOCTYPE svg PUBLIC "-//W3C//DTD SVG 1.1//EN" "http://www.w3.org/Graphics/SVG/1.1/DTD/svg11.dtd"><svg t="1535639126647" class="icon" style="" viewBox="0 0 1024 1024" version="1.1" xmlns="http://www.w3.org/2000/svg" p-id="817" xmlns:xlink="http://www.w3.org/1999/xlink" width="48" height="48"><defs><style type="text/css"></style></defs><path d="M512 512m-385.7322666666667 0a385.7322666666667 385.7322666666667 0 1 0 771.4645333333334 0 385.7322666666667 385.7322666666667 0 1 0-771.4645333333334 0Z" fill="#E1E1E1" p-id="818"></path><path d="M296.54186666666664 302.75413333333336H732.8l-39.6544 445.56800000000004-179.08906666666664 50.19306666666667-177.86026666666666-50.19306666666667z" fill="#E44D26" p-id="819"></path><path d="M334.1994666666667 345.5402666666667l32.81066666666667 368.65706666666665 147.1488 41.523199999999996 0.512-0.16213333333333332V345.5402666666667z" fill="#E44D26" p-id="820"></path><path d="M695.1424 345.5402666666667H514.6709333333333v410.0181333333333l147.6608-41.36106666666667z" fill="#F26528" p-id="821"></path><path d="M639.6927999999999 456.8576l4.616533333333334-50.44053333333333H389.4698666666667l13.550933333333333 153.93280000000001h176.39253333333332l-6.3402666666666665 65.73226666666667-56.78933333333333 15.283199999999999-56.4992-15.283199999999999-3.7546666666666666-40.36266666666667h-50.44053333333333l6.357333333333333 80.13653333333333 104.33706666666667 28.8256h1.1776v-0.2730666666666667l103.47519999999999-28.552533333333333 14.395733333333334-156.81706666666665H449.6810666666667l-4.317866666666666-52.16426666666667h194.28693333333334z" fill="#EFEFEF" p-id="822"></path></svg>